<?xml version="1.0" encoding="utf-8"?>
<!-- Generator: Adobe Illustrator 27.3.1, SVG Export Plug-In . SVG Version: 6.00 Build 0)  -->
<svg id="jesuisange" version="1.1" xmlns="http://www.w3.org/2000/svg" xmlns:xlink="http://www.w3.org/1999/xlink" x="0px" y="0px"
	 viewBox="0 0 320 320" style="enable-background:new 0 0 320 320;" xml:space="preserve">
<style type="text/css">
	.st0{fill:#FFFFFF;}
	.st1{fill:none;stroke:#000000;stroke-width:4;stroke-linecap:round;stroke-miterlimit:8;}
</style>
<g id="jesuisange">
	<rect x="49.6" y="44.6" class="st0" width="220.7" height="231"/>
	<g>
		<g transform="translate(9.702599732430826 10.869560737535267) rotate(0 45.47682588731914 46.86890909321369)">
		
			<path class="st1" d="M135.3,141.5c4.7,10.2,11.6,44.2,27.7,61.3c16.1,17,57.3,34,69,41.1 M134.4,143.9c5,10.4,14.9,43.3,31,60.1
				c16.1,16.8,55.1,33.7,65.9,40.8"/>
		</g>
		<g transform="translate(9.702599732430826 10.869560737535267) rotate(0 45.47682588731914 46.86890909321369)">
			<path class="st1" d="M197.7,238c12.3,3.5,24.3,7.3,34,6 M199.9,240.5c10,0.8,20.6,3.1,32.4,3.7"/>
		</g>
		<g transform="translate(9.702599732430826 10.869560737535267) rotate(0 45.47682588731914 46.86890909321369)">
			<path class="st1" d="M208.4,218.6c8.1,11.1,16,22.2,23.3,25.4 M210.6,221.1c6.3,7.5,13.2,16.5,21.8,23.1"/>
		</g>
	</g>
	<g>
		<path d="M42.3,85.7c-0.6,1.9-1.2,4-1.6,6.4c-0.4,2.4-0.7,5-0.7,7.9c0,2,0.1,4.1,0.2,6.2c0.1,2.1,0.2,4.3,0.3,6.7
			c0.5-0.3,1-0.4,1.4-0.4c0.3,0,0.6,0.1,0.8,0.3c0.2,0.2,0.4,0.5,0.4,0.8c0,0.5-0.2,0.8-0.7,1.1c-0.4,0.2-1.1,0.5-1.9,0.9v2.9
			c0,5-0.3,9.7-0.9,13.9c-0.6,4.2-1.5,7.8-2.8,10.9c-1.3,3-3,5.4-5.2,7.1c-2.1,1.7-4.7,2.6-7.8,2.6c-1.3,0-2.6-0.2-3.9-0.7
			s-2.4-1.3-3.4-2.3c-1-1-1.8-2.3-2.4-3.8c-0.6-1.5-0.9-3.3-0.9-5.3c0-2.2,0.4-4.4,1.2-6.4s1.9-3.9,3.3-5.7s2.9-3.4,4.7-4.9
			c1.7-1.5,3.5-2.9,5.4-4.1c1.8-1.2,3.6-2.3,5.4-3.3c1.8-0.9,3.4-1.7,4.7-2.3c0-2.3-0.1-4.6-0.3-6.9c-0.2-2.3-0.2-4.6-0.2-7.1
			c0-2.3,0.1-4.4,0.4-6.5c0.3-2.1,0.7-4,1.1-5.9c-0.9,0.5-1.8,0.9-2.8,1.4c-1,0.4-2.1,0.8-3.2,1.2c-1.1,0.4-2.3,0.7-3.5,1.1
			c-1.2,0.4-2.4,0.7-3.5,1c-1.7,0.5-3.3,1.1-4.8,1.7c-1.4,0.6-2.7,1.3-3.7,2.1c-1,0.8-1.8,1.7-2.4,2.7c-0.6,1-0.8,2.2-0.8,3.5
			c0,1.5,0.3,2.9,0.9,4c0.6,1.1,1.4,2,2.3,2.6c1,0.7,2,1.2,3.3,1.5c1.2,0.3,2.4,0.4,3.6,0.4c0.4,0,0.6,0.1,0.9,0.4
			c0.2,0.2,0.3,0.5,0.3,0.9c0,0.4-0.1,0.6-0.4,0.9c-0.3,0.2-0.5,0.3-0.8,0.3c-1.5,0-3-0.2-4.5-0.6s-2.8-1.1-4-2s-2.2-2-2.9-3.4
			c-0.8-1.4-1.1-3-1.1-4.8c0-1.6,0.3-3.1,1-4.3c0.7-1.3,1.6-2.4,2.7-3.4c1.2-1,2.6-1.9,4.2-2.6c1.7-0.8,3.5-1.4,5.5-2
			c1.5-0.4,2.9-0.9,4.3-1.3c1.4-0.5,2.8-0.9,4.1-1.4s2.5-1,3.6-1.6c1.1-0.5,2-1.1,2.8-1.7c0.9-2.5,1.8-4.4,2.9-5.7c1-1.3,2-2,2.9-2
			c0.2,0,0.4,0,0.6,0.1c0.2,0.1,0.5,0.2,0.7,0.4c0.2,0.2,0.4,0.4,0.5,0.7c0.1,0.3,0.2,0.6,0.2,1.1c0,1-0.5,2.1-1.5,3.3
			C45.5,83.2,44.1,84.4,42.3,85.7z M38.1,116.6c-1.3,0.6-2.7,1.3-4.3,2.1s-3.2,1.9-4.9,3c-1.6,1.2-3.3,2.4-4.8,3.8s-3,2.9-4.2,4.5
			s-2.2,3.3-3,5.1c-0.7,1.8-1.1,3.6-1.1,5.5c0,1.6,0.2,3,0.7,4.2c0.5,1.2,1.1,2.2,1.9,3.1c0.8,0.8,1.7,1.4,2.7,1.8
			c1,0.4,2,0.6,3.1,0.6c1.8,0,3.5-0.4,4.8-1.3c1.4-0.9,2.6-2,3.6-3.6c1-1.5,1.9-3.3,2.6-5.4c0.7-2.1,1.2-4.4,1.7-6.9
			c0.4-2.5,0.7-5.2,0.9-8C38,122.5,38.1,119.6,38.1,116.6z"/>
		<path d="M52.3,125.9c0.5,0.6,1.1,1.2,1.8,1.5c0.7,0.4,1.6,0.6,2.7,0.6c1.1,0,2.1-0.3,3-0.8c0.9-0.5,1.7-1.2,2.4-2
			c0.7-0.8,1.4-1.8,2-2.8c0.6-1,1.1-2.1,1.6-3.1c0.1-0.2,0.3-0.4,0.5-0.5c0.2-0.1,0.4-0.2,0.7-0.2c0.4,0,0.7,0.1,0.9,0.4
			s0.3,0.6,0.3,0.9c0,0.1,0,0.2,0,0.3c0,0.1-0.1,0.2-0.1,0.2c-1.5,3.4-3.2,5.9-5,7.6c-1.8,1.7-3.8,2.6-6.1,2.6
			c-1.5,0-2.7-0.3-3.8-0.8s-1.9-1.3-2.6-2.2c-0.7-0.9-1.2-1.9-1.5-3s-0.5-2.3-0.5-3.4s0.1-2.2,0.4-3.1c0.3-1,0.7-1.8,1.2-2.5
			c0.5-0.7,1.1-1.3,1.9-1.7c0.7-0.4,1.5-0.6,2.4-0.6c0.5,0,1,0.1,1.5,0.3c0.5,0.2,0.9,0.5,1.3,0.9c0.4,0.4,0.7,0.9,1,1.4
			c0.2,0.6,0.4,1.2,0.4,1.9c0,0.9-0.2,1.8-0.5,2.6c-0.3,0.8-0.7,1.5-1.3,2.2c-0.5,0.7-1.2,1.3-1.9,1.9
			C53.9,125,53.1,125.5,52.3,125.9z M51.3,123.8c0.7-0.3,1.3-0.7,1.9-1.1c0.6-0.4,1-0.9,1.4-1.5s0.7-1.1,0.9-1.7
			c0.2-0.6,0.3-1.2,0.3-1.8c0-0.7-0.2-1.2-0.5-1.5c-0.3-0.3-0.7-0.5-1.2-0.5c-0.6,0-1.1,0.2-1.5,0.5c-0.4,0.3-0.8,0.8-1,1.3
			s-0.5,1.1-0.6,1.8c-0.1,0.7-0.2,1.3-0.2,1.9c0,0.4,0,0.8,0.1,1.3C51.1,123,51.2,123.4,51.3,123.8z"/>
		<path d="M84.3,117.3c-0.1,0.4-0.3,0.8-0.5,1.2c-0.2,0.4-0.4,0.9-0.6,1.4c-0.2,0.4-0.4,0.7-0.6,0.9c-0.2,0.2-0.5,0.3-0.8,0.3
			c-0.4,0-0.7-0.1-0.9-0.3c-0.2-0.2-0.3-0.5-0.3-0.8c0-0.1,0-0.2,0-0.3c0-0.1,0.1-0.2,0.2-0.4c0.6-1.1,1-2.1,1.3-2.9
			c0.3-0.8,0.5-1.7,0.7-2.6c-0.2-0.5-0.3-0.9-0.3-1.3c-0.1-0.4-0.1-0.7-0.1-1.1c0-0.7,0.2-1.3,0.5-1.8c0.3-0.5,0.7-0.7,1.3-0.7
			c0.5,0,0.9,0.2,1.2,0.7c0.3,0.4,0.4,1,0.4,1.6c0,0.4,0,0.7-0.1,1.1c-0.1,0.4-0.2,0.8-0.3,1.3c0.5,1.3,1,2.4,1.5,3.4
			c0.5,1,1,1.9,1.4,2.7c0.4,0.8,0.7,1.6,1,2.3c0.3,0.7,0.4,1.4,0.4,2.1c0,0.9-0.2,1.8-0.6,2.7c-0.4,0.8-1,1.5-1.9,2.1
			c0.1,0,0.2,0,0.3,0c0.1,0,0.2,0,0.3,0c1.3,0,2.4-0.3,3.5-0.9c1.1-0.6,2-1.3,2.9-2.2c0.9-0.9,1.6-1.9,2.3-3.1
			c0.7-1.1,1.2-2.2,1.7-3.3c0.2-0.5,0.5-0.8,0.9-0.8c0.4,0,0.7,0.1,0.9,0.4c0.2,0.3,0.3,0.6,0.3,0.9c0,0.2,0,0.3-0.1,0.5
			c-0.2,0.6-0.6,1.3-0.9,2c-0.4,0.8-0.9,1.5-1.4,2.4c-0.5,0.8-1.2,1.6-1.9,2.4c-0.7,0.8-1.5,1.5-2.4,2.1c-0.9,0.6-1.8,1.1-2.9,1.5
			c-1,0.4-2.2,0.5-3.4,0.5c-1.5,0-2.9-0.3-4.1-0.8c-1.3-0.5-2.3-1.4-3.1-2.6c-0.1-0.2-0.2-0.4-0.2-0.6c0-0.3,0.1-0.6,0.4-0.9
			c0.3-0.3,0.5-0.4,0.9-0.4c0.4,0,0.7,0.1,0.9,0.4c0,0,0.1,0.1,0.2,0.2s0.3,0.2,0.5,0.3c0.2,0.1,0.4,0.2,0.7,0.3
			c0.3,0.1,0.5,0.1,0.8,0.1c0.5,0,1-0.1,1.3-0.3c0.4-0.2,0.7-0.5,0.9-0.8c0.2-0.3,0.4-0.7,0.5-1s0.1-0.7,0.1-0.9
			c0-0.6-0.1-1.1-0.3-1.7c-0.2-0.6-0.4-1.1-0.7-1.7c-0.3-0.6-0.6-1.1-0.9-1.7C84.8,118.6,84.5,118,84.3,117.3z"/>
		<path d="M108.9,125.9c-0.8,1.3-1.7,2.3-2.7,3s-2.1,1.1-3.1,1.1c-0.8,0-1.6-0.2-2.3-0.5s-1.2-0.7-1.7-1.3c-0.5-0.6-0.9-1.2-1.1-2
			c-0.3-0.8-0.4-1.7-0.4-2.7c0-1.5,0.1-2.9,0.4-4.1s0.6-2.2,1-3c0.4-0.8,0.8-1.6,1.5-2.5c0.1-0.1,0.2-0.2,0.4-0.3s0.3-0.1,0.5-0.1
			c0.4,0,0.6,0.1,0.9,0.4c0.2,0.3,0.3,0.5,0.3,0.9c0,0.1,0,0.3-0.1,0.4c-0.1,0.1-0.1,0.3-0.2,0.4c-0.1,0.2-0.3,0.5-0.5,0.9
			c-0.2,0.4-0.5,0.9-0.8,1.6s-0.5,1.4-0.7,2.3s-0.3,1.9-0.3,3.1c0,1.3,0.3,2.3,0.8,3c0.5,0.7,1.3,1,2.2,1c0.4,0,0.9-0.1,1.4-0.4
			c0.5-0.3,1-0.6,1.5-1.2s0.9-1.2,1.3-2c0.4-0.8,0.6-1.8,0.7-2.9l0.5-5.7c0-0.3,0.2-0.6,0.4-0.8c0.2-0.2,0.5-0.3,0.9-0.3
			c0.4,0,0.7,0.1,0.9,0.4c0.2,0.3,0.3,0.6,0.3,0.9l-0.4,5.5c0,0.5,0,1.1,0,1.8c0.1,0.8,0.2,1.5,0.5,2.2c0.2,0.7,0.6,1.4,1.1,1.9
			c0.5,0.5,1.1,0.8,1.9,0.8c0.6,0,1.1-0.1,1.7-0.4c0.6-0.3,1.1-0.7,1.6-1.2c0.5-0.5,1-1,1.4-1.6c0.4-0.6,0.8-1.2,1.2-1.8
			c0.4-0.6,0.7-1.2,0.9-1.8s0.5-1,0.7-1.4c0.1-0.2,0.3-0.4,0.5-0.6s0.4-0.2,0.7-0.2c0.4,0,0.7,0.1,0.9,0.4c0.2,0.3,0.3,0.6,0.3,0.9
			c0,0.2,0,0.3-0.1,0.5c-0.1,0.2-0.3,0.5-0.5,1.1c-0.3,0.6-0.6,1.2-1,1.9c-0.4,0.7-0.9,1.5-1.5,2.3c-0.6,0.8-1.2,1.5-1.9,2.2
			c-0.7,0.7-1.5,1.2-2.3,1.7s-1.7,0.6-2.7,0.6c-1.3,0-2.4-0.4-3.3-1.1S109.3,127.3,108.9,125.9z"/>
		<path d="M127.1,103.5c0,0.8-0.3,1.6-0.9,2.1c-0.6,0.6-1.3,0.9-2.1,0.9c-0.8,0-1.6-0.3-2.1-0.9c-0.6-0.6-0.9-1.3-0.9-2.1
			c0-0.4,0.1-0.8,0.2-1.2c0.2-0.4,0.4-0.7,0.6-1c0.3-0.3,0.6-0.5,1-0.6c0.4-0.2,0.8-0.2,1.2-0.2c0.4,0,0.8,0.1,1.2,0.2
			c0.4,0.2,0.7,0.4,1,0.6c0.3,0.3,0.5,0.6,0.6,1C127,102.7,127.1,103.1,127.1,103.5z M121.7,123c0-3.2,0.2-6.4,0.6-9.5
			c0-0.3,0.2-0.6,0.4-0.8s0.5-0.3,0.9-0.3c0.3,0,0.6,0.1,0.8,0.4c0.2,0.3,0.3,0.5,0.3,0.9c0,0.1,0,0.5-0.1,1.2
			c-0.1,0.7-0.1,1.5-0.2,2.4c-0.1,0.9-0.1,1.9-0.2,2.9c-0.1,1-0.1,2-0.1,2.8c0,1.2,0.1,2.1,0.3,2.8c0.2,0.7,0.5,1.3,0.9,1.7
			s0.8,0.7,1.2,0.8c0.4,0.1,0.8,0.2,1.2,0.2c0.6,0,1.3-0.2,1.9-0.7c0.7-0.4,1.3-1.1,2-1.9s1.4-1.8,2.1-2.9c0.7-1.1,1.4-2.4,2.1-3.7
			c0.1-0.2,0.3-0.4,0.5-0.5c0.2-0.1,0.4-0.2,0.7-0.2c0.4,0,0.6,0.1,0.9,0.4s0.3,0.6,0.3,0.9c0,0.2,0,0.4-0.1,0.6
			c-0.3,0.5-0.6,1.1-1,1.9s-0.9,1.5-1.4,2.3c-0.5,0.8-1.1,1.5-1.7,2.3c-0.6,0.8-1.3,1.5-1.9,2.1c-0.7,0.6-1.4,1.1-2.2,1.5
			c-0.8,0.4-1.5,0.6-2.3,0.6c-1,0-1.9-0.2-2.6-0.6c-0.8-0.4-1.4-1-1.9-1.7c-0.5-0.7-0.9-1.5-1.2-2.5
			C121.8,125.1,121.7,124.1,121.7,123z M125.2,103.5c0-0.3-0.1-0.6-0.3-0.8s-0.5-0.3-0.8-0.3c-0.3,0-0.6,0.1-0.8,0.3
			c-0.2,0.2-0.3,0.5-0.3,0.8c0,0.3,0.1,0.6,0.3,0.8c0.2,0.2,0.5,0.3,0.8,0.3c0.3,0,0.6-0.1,0.8-0.3
			C125.1,104.1,125.2,103.8,125.2,103.5z"/>
		<path d="M139.6,117.3c-0.1,0.4-0.3,0.8-0.5,1.2c-0.2,0.4-0.4,0.9-0.6,1.4c-0.2,0.4-0.4,0.7-0.6,0.9c-0.2,0.2-0.5,0.3-0.8,0.3
			c-0.4,0-0.7-0.1-0.9-0.3c-0.2-0.2-0.3-0.5-0.3-0.8c0-0.1,0-0.2,0-0.3c0-0.1,0.1-0.2,0.2-0.4c0.6-1.1,1-2.1,1.3-2.9
			c0.3-0.8,0.5-1.7,0.7-2.6c-0.2-0.5-0.3-0.9-0.3-1.3c-0.1-0.4-0.1-0.7-0.1-1.1c0-0.7,0.2-1.3,0.5-1.8c0.3-0.5,0.7-0.7,1.3-0.7
			c0.5,0,0.9,0.2,1.2,0.7c0.3,0.4,0.4,1,0.4,1.6c0,0.4,0,0.7-0.1,1.1c-0.1,0.4-0.2,0.8-0.3,1.3c0.5,1.3,1,2.4,1.5,3.4
			c0.5,1,1,1.9,1.4,2.7c0.4,0.8,0.7,1.6,1,2.3c0.3,0.7,0.4,1.4,0.4,2.1c0,0.9-0.2,1.8-0.6,2.7c-0.4,0.8-1,1.5-1.9,2.1
			c0.1,0,0.2,0,0.3,0c0.1,0,0.2,0,0.3,0c1.3,0,2.4-0.3,3.5-0.9c1.1-0.6,2-1.3,2.9-2.2c0.9-0.9,1.6-1.9,2.3-3.1
			c0.7-1.1,1.2-2.2,1.7-3.3c0.2-0.5,0.5-0.8,0.9-0.8c0.4,0,0.7,0.1,0.9,0.4c0.2,0.3,0.3,0.6,0.3,0.9c0,0.2,0,0.3-0.1,0.5
			c-0.2,0.6-0.6,1.3-0.9,2c-0.4,0.8-0.9,1.5-1.4,2.4c-0.5,0.8-1.2,1.6-1.9,2.4c-0.7,0.8-1.5,1.5-2.4,2.1c-0.9,0.6-1.8,1.1-2.9,1.5
			c-1,0.4-2.2,0.5-3.4,0.5c-1.5,0-2.9-0.3-4.1-0.8c-1.3-0.5-2.3-1.4-3.1-2.6c-0.1-0.2-0.2-0.4-0.2-0.6c0-0.3,0.1-0.6,0.4-0.9
			c0.3-0.3,0.5-0.4,0.9-0.4c0.4,0,0.7,0.1,0.9,0.4c0,0,0.1,0.1,0.2,0.2s0.3,0.2,0.5,0.3c0.2,0.1,0.4,0.2,0.7,0.3
			c0.3,0.1,0.5,0.1,0.8,0.1c0.5,0,1-0.1,1.3-0.3c0.4-0.2,0.7-0.5,0.9-0.8c0.2-0.3,0.4-0.7,0.5-1s0.1-0.7,0.1-0.9
			c0-0.6-0.1-1.1-0.3-1.7c-0.2-0.6-0.4-1.1-0.7-1.7c-0.3-0.6-0.6-1.1-0.9-1.7C140.2,118.6,139.9,118,139.6,117.3z"/>
		<path d="M231.8,129.4c0.1,0.2,0.1,0.3,0.1,0.6c0,0.3-0.1,0.6-0.3,0.9c-0.2,0.2-0.5,0.4-0.9,0.4c-0.2,0-0.5-0.1-0.6-0.2
			c-0.2-0.1-0.3-0.3-0.4-0.5c-0.4-0.8-0.8-1.8-1.1-3.1c-0.3-1.2-0.6-2.6-0.8-4.1c-0.2-1.5-0.4-3.1-0.6-4.9c-0.1-1.7-0.3-3.5-0.3-5.4
			c-1.7,0.2-3.5,0.5-5.6,0.7c-2.1,0.3-4.4,0.6-7.1,0.9c-1.9,0.3-3.8,0.5-5.7,0.7c-4.7,5.2-9.7,9.1-15,11.7c-5.2,2.7-10.5,4-15.8,4
			c-2.3,0-4.4-0.2-6.1-0.7c-1.7-0.5-3.1-1-4.2-1.5s-2-1.1-2.5-1.6c-0.6-0.5-0.9-0.8-0.9-0.8c-0.2-0.2-0.3-0.5-0.3-0.9
			c0-0.4,0.1-0.7,0.4-0.9c0.2-0.2,0.5-0.4,0.9-0.4c0.4,0,0.7,0.1,0.9,0.4c0,0,0.3,0.3,0.8,0.7c0.5,0.4,1.2,0.8,2.2,1.3
			s2.2,0.9,3.7,1.3c1.5,0.4,3.2,0.6,5.3,0.6c2.8,0,5.5-0.4,8-1.1c2.5-0.8,5-1.7,7.2-2.9c2.3-1.2,4.4-2.6,6.3-4.1
			c2-1.5,3.7-3.1,5.3-4.7c-1.6,0.1-3.1,0.2-4.7,0.3c-1.5,0.1-3.1,0.1-4.6,0.1c-3,0-5.8-0.2-8.5-0.5c-2.7-0.3-5-0.9-7.1-1.7
			c-2-0.8-3.7-1.8-4.9-3.1c-1.2-1.3-1.8-2.9-1.8-4.9c0-0.9,0.2-1.8,0.5-2.7c0.4-0.9,0.8-1.7,1.3-2.4c0.5-0.7,1-1.3,1.6-1.8
			c0.6-0.5,1-0.7,1.4-0.7c0.3,0,0.6,0.1,0.9,0.3c0.3,0.2,0.4,0.5,0.4,0.9c0,0.2,0,0.4-0.1,0.6c-0.1,0.2-0.2,0.3-0.4,0.4
			c0,0-0.2,0.2-0.6,0.5s-0.7,0.6-1.1,1.1c-0.4,0.5-0.7,1-1,1.6c-0.3,0.6-0.5,1.3-0.5,2c0,1.3,0.4,2.4,1.3,3.3c0.9,1,2.1,1.8,3.8,2.4
			c1.7,0.7,3.7,1.1,6.2,1.5c2.4,0.3,5.2,0.5,8.3,0.5c1.8,0,3.7-0.1,5.7-0.2c2-0.1,4.1-0.3,6.3-0.5c1.1-1.2,2-2.3,2.8-3.3
			c0.8-1,1.5-2,2.1-2.8c1-1.4,1.9-2.8,3-4.3c1-1.5,2.1-3.1,3.1-4.6c1-1.6,2-3.1,3-4.7c1-1.5,1.9-3,2.8-4.3s1.6-2.6,2.3-3.7
			c0.7-1.1,1.2-2,1.7-2.8c0.1-0.6,0.3-1.1,0.6-1.6s0.7-0.7,1.3-0.7c0.3,0,0.7,0.1,1,0.4c0.3,0.3,0.5,0.6,0.5,1c0,0.3-0.1,0.6-0.3,1
			c-0.2,0.4-0.4,0.7-0.6,0.9c-0.1,0.4-0.2,1.3-0.3,2.7c-0.1,1.4-0.3,3-0.4,5c-0.1,2-0.3,4.2-0.4,6.5c-0.1,2.4-0.1,4.8-0.1,7.2
			c0,0.9,0,1.8,0,2.7c0,0.9,0,1.8,0.1,2.7c3.3-0.4,5.7-0.7,7.3-0.9s2.3-0.2,2.4-0.2c0.3,0,0.6,0.1,0.8,0.3c0.3,0.2,0.4,0.5,0.4,0.9
			c0,0.3-0.1,0.6-0.3,0.8c-0.2,0.2-0.5,0.4-0.8,0.4c-0.4,0-0.9,0.1-1.4,0.2s-1.2,0.1-2,0.2c-0.8,0.1-1.7,0.2-2.7,0.3
			c-1,0.1-2.3,0.3-3.7,0.4c0.1,1.8,0.2,3.6,0.3,5.2c0.1,1.7,0.3,3.2,0.5,4.7c0.2,1.4,0.5,2.7,0.7,3.9
			C231.1,127.8,231.4,128.7,231.8,129.4z M213.7,112.3c2.6-0.4,5-0.7,7.1-0.9c2.1-0.3,4.1-0.5,5.8-0.7c0-1,0-1.9,0-2.9
			c0-1,0-1.9,0-2.9c0-3.1,0.1-6.1,0.2-8.9c0.1-2.8,0.3-5.3,0.5-7.4c-0.9,1.4-1.9,2.9-2.9,4.6c-1.1,1.7-2.2,3.4-3.3,5.2
			c-1.2,1.8-2.3,3.5-3.5,5.2c-1.2,1.7-2.3,3.3-3.4,4.8c-0.5,0.8-1.1,1.5-1.6,2.2c-0.6,0.7-1.1,1.4-1.7,2.1c0.5,0,1-0.1,1.4-0.2
			C212.7,112.4,213.2,112.4,213.7,112.3z"/>
		<path d="M246.4,126.6c0.4-0.7,0.8-1.5,1.2-2.4c0.5-0.9,1-1.8,1.5-2.7s1.1-1.8,1.7-2.7c0.6-0.9,1.2-1.7,1.8-2.5
			c0.6-0.8,1.3-1.3,1.9-1.7c0.7-0.3,1.3-0.5,1.8-0.5c1.2,0,2,0.4,2.6,1.3c0.6,0.8,0.8,1.9,0.8,3.1c0,0.3,0,0.6,0,1
			c0,0.4-0.1,0.8-0.1,1.3s-0.1,0.9-0.1,1.4c0,0.5,0,0.9,0,1.3c0,0.5,0,1,0.1,1.5c0.1,0.5,0.2,0.9,0.3,1.3c0.2,0.4,0.4,0.7,0.7,0.9
			c0.3,0.2,0.7,0.3,1.1,0.3c0.8,0,1.7-0.3,2.5-1c0.8-0.7,1.5-1.4,2.2-2.3c0.7-0.9,1.3-1.8,1.8-2.7s0.9-1.7,1.1-2.3
			c0.1-0.2,0.3-0.4,0.5-0.6c0.2-0.1,0.4-0.2,0.7-0.2c0.4,0,0.7,0.1,0.9,0.4c0.2,0.3,0.3,0.6,0.3,0.9c0,0.2,0,0.3-0.1,0.5
			c-0.1,0.2-0.3,0.5-0.5,1.1c-0.3,0.6-0.6,1.2-1,1.9c-0.4,0.7-0.9,1.5-1.5,2.3c-0.6,0.8-1.2,1.5-1.9,2.2s-1.5,1.2-2.3,1.7
			c-0.8,0.4-1.7,0.7-2.5,0.7c-1,0-1.8-0.2-2.4-0.6c-0.6-0.4-1.1-0.9-1.5-1.5c-0.4-0.6-0.6-1.3-0.7-2.1c-0.1-0.8-0.2-1.5-0.2-2.3
			c0-0.3,0-0.7,0-1.1c0-0.4,0.1-0.9,0.1-1.3c0.1-0.5,0.1-0.9,0.1-1.4s0-0.9,0-1.3c0-0.7-0.1-1.2-0.3-1.4c-0.2-0.3-0.4-0.4-0.6-0.4
			c-0.4,0-0.8,0.2-1.2,0.6c-0.5,0.4-0.9,0.9-1.4,1.6s-1,1.4-1.5,2.2c-0.5,0.8-1,1.7-1.5,2.5c-0.5,0.8-0.9,1.6-1.3,2.3
			c-0.4,0.7-0.7,1.4-0.9,1.8c-0.4,0.9-0.9,1.6-1.3,1.9c-0.4,0.3-0.9,0.5-1.4,0.5c-0.6,0-1.2-0.2-1.5-0.6c-0.4-0.4-0.6-0.9-0.6-1.6
			c0-0.2,0-0.5,0.1-0.9c0-0.5,0.1-1,0.2-1.6s0.1-1.3,0.2-2s0.1-1.5,0.2-2.2c0.1-0.7,0.1-1.4,0.2-2c0-0.6,0.1-1.1,0.1-1.6
			c0-0.6,0-1.1-0.1-1.6c0-0.5-0.1-0.8-0.3-0.9c-0.2,0.1-0.6,0.5-1.1,1.2c-0.5,0.8-1.2,2.1-2,4c-0.1,0.2-0.3,0.4-0.5,0.6
			c-0.2,0.1-0.5,0.2-0.7,0.2c-0.4,0-0.7-0.1-0.9-0.4c-0.2-0.3-0.3-0.5-0.3-0.9c0-0.2,0-0.3,0.1-0.5c1-2.4,1.9-4.1,2.8-5.2
			c0.9-1.1,1.7-1.7,2.6-1.7c0.5,0,0.9,0.1,1.3,0.4c0.4,0.3,0.6,0.6,0.8,1c0.2,0.4,0.4,0.9,0.5,1.4c0.1,0.5,0.1,1,0.1,1.6
			c0,0.4,0,1-0.1,1.9c-0.1,0.8-0.1,1.7-0.2,2.7c-0.1,1-0.2,1.9-0.2,2.9C246.5,125.2,246.5,126,246.4,126.6z"/>
		<path d="M281.3,132.9c4.2-5.4,7-9.9,8.7-13.5c0.1-0.2,0.3-0.4,0.4-0.5c0.2-0.1,0.4-0.2,0.6-0.2c0.4,0,0.7,0.1,0.9,0.4
			c0.2,0.3,0.4,0.5,0.4,0.9c0,0.2,0,0.3-0.1,0.5c-1,2.2-2.4,4.7-4.2,7.4s-4.1,5.8-6.8,9.2c0,1.4,0,2.8,0,4.2c0,1.4,0,2.9,0,4.6
			s0,3.3-0.1,4.9c-0.1,1.6-0.2,3.2-0.4,4.6c-0.2,1.5-0.5,2.8-0.8,4.1c-0.3,1.3-0.8,2.3-1.3,3.3c-0.5,0.9-1.2,1.6-2,2.2
			s-1.7,0.8-2.7,0.8c-1.5,0-2.6-0.6-3.4-1.7s-1.2-2.7-1.2-4.8c0-1.1,0.1-2.3,0.3-3.6c0.2-1.3,0.5-2.6,0.9-4c0.4-1.4,0.9-2.8,1.4-4.2
			c0.6-1.4,1.2-2.8,1.9-4.1c0.7-1.3,1.4-2.6,2.2-3.8c0.8-1.2,1.7-2.3,2.6-3.3c0-1.5,0-3.1,0-4.6c0-1.5,0-2.9,0.1-4.2
			c-0.7,0.8-1.5,1.5-2.4,2c-0.9,0.5-1.8,0.7-2.7,0.7c-0.8,0-1.5-0.1-2.1-0.4s-1.2-0.7-1.6-1.3c-0.4-0.5-0.8-1.2-1-1.9
			c-0.2-0.7-0.4-1.5-0.4-2.4c0-1.7,0.3-3.2,0.9-4.6c0.6-1.3,1.3-2.4,2.2-3.3c0.9-0.9,1.9-1.5,3-2c1.1-0.4,2.2-0.7,3.2-0.7
			c0.7,0,1.3,0.1,1.9,0.3c0.6,0.2,1.1,0.4,1.5,0.6c0.4,0.2,0.7,0.4,0.9,0.6c0.2,0.2,0.3,0.3,0.4,0.3c0.2,0.3,0.4,0.6,0.4,0.9
			s-0.1,0.6-0.4,0.9c-0.2,0.3-0.5,0.4-0.9,0.4c-0.3,0-0.6-0.1-0.9-0.4c-0.1-0.1-0.2-0.2-0.3-0.3c-0.1-0.1-0.3-0.2-0.6-0.4
			s-0.5-0.2-0.8-0.3c-0.3-0.1-0.7-0.1-1.1-0.1c-0.7,0-1.4,0.1-2.2,0.4s-1.5,0.8-2.2,1.4c-0.7,0.6-1.3,1.5-1.7,2.5
			c-0.5,1-0.7,2.2-0.7,3.6c0,1.1,0.2,1.9,0.7,2.6c0.5,0.7,1.2,1,2.2,1c0.5,0,1-0.1,1.5-0.4c0.5-0.3,1-0.7,1.5-1.2
			c0.5-0.6,0.9-1.3,1.3-2.1c0.4-0.8,0.6-1.8,0.8-3c0-0.3,0.2-0.6,0.4-0.8c0.2-0.2,0.5-0.3,0.9-0.3c0.4,0,0.7,0.1,0.9,0.4
			c0.2,0.3,0.3,0.6,0.3,0.9c0,0,0,0.4,0,1c0,0.7,0,1.5-0.1,2.6c0,1.1,0,2.3-0.1,3.8S281.3,131.3,281.3,132.9z M278.8,140.1
			c-1,1.4-2,3-2.8,4.7c-0.8,1.7-1.6,3.4-2.2,5.1s-1.1,3.4-1.4,5c-0.3,1.6-0.5,3.1-0.5,4.4c0,0.8,0.1,1.5,0.2,2
			c0.1,0.5,0.3,0.9,0.5,1.1c0.2,0.3,0.4,0.4,0.7,0.5c0.3,0.1,0.5,0.1,0.7,0.1c0.7,0,1.3-0.3,1.8-0.8c0.5-0.6,0.9-1.3,1.3-2.2
			c0.4-0.9,0.6-2,0.9-3.2c0.2-1.2,0.4-2.4,0.5-3.7c0.1-1.3,0.2-2.5,0.2-3.8c0-1.3,0.1-2.4,0.1-3.5c0-1,0-1.9,0-2.9
			C278.8,142.1,278.8,141.1,278.8,140.1z"/>
		<path d="M293.9,125.9c0.5,0.6,1.1,1.2,1.8,1.5c0.7,0.4,1.6,0.6,2.7,0.6c1.1,0,2.1-0.3,3-0.8c0.9-0.5,1.7-1.2,2.4-2
			c0.7-0.8,1.4-1.8,2-2.8c0.6-1,1.1-2.1,1.6-3.1c0.1-0.2,0.3-0.4,0.5-0.5c0.2-0.1,0.4-0.2,0.7-0.2c0.4,0,0.7,0.1,0.9,0.4
			s0.3,0.6,0.3,0.9c0,0.1,0,0.2,0,0.3c0,0.1-0.1,0.2-0.1,0.2c-1.5,3.4-3.2,5.9-5,7.6c-1.8,1.7-3.8,2.6-6.1,2.6
			c-1.5,0-2.7-0.3-3.8-0.8s-1.9-1.3-2.6-2.2c-0.7-0.9-1.2-1.9-1.5-3s-0.5-2.3-0.5-3.4s0.1-2.2,0.4-3.1c0.3-1,0.7-1.8,1.2-2.5
			c0.5-0.7,1.1-1.3,1.9-1.7c0.7-0.4,1.5-0.6,2.4-0.6c0.5,0,1,0.1,1.5,0.3c0.5,0.2,0.9,0.5,1.3,0.9c0.4,0.4,0.7,0.9,1,1.4
			c0.2,0.6,0.4,1.2,0.4,1.9c0,0.9-0.2,1.8-0.5,2.6c-0.3,0.8-0.7,1.5-1.3,2.2c-0.5,0.7-1.2,1.3-1.9,1.9
			C295.6,125,294.8,125.5,293.9,125.9z M292.9,123.8c0.7-0.3,1.3-0.7,1.9-1.1c0.6-0.4,1-0.9,1.4-1.5s0.7-1.1,0.9-1.7
			c0.2-0.6,0.3-1.2,0.3-1.8c0-0.7-0.2-1.2-0.5-1.5c-0.3-0.3-0.7-0.5-1.2-0.5c-0.6,0-1.1,0.2-1.5,0.5c-0.4,0.3-0.8,0.8-1,1.3
			s-0.5,1.1-0.6,1.8c-0.1,0.7-0.2,1.3-0.2,1.9c0,0.4,0,0.8,0.1,1.3C292.7,123,292.8,123.4,292.9,123.8z"/>
	</g>
</g>
<g id="PATH">
	<g>
		<g>
			<path d="M26.8,110.9c-3.8-0.1-8.3-1.3-10.6-4.7c-2-3-2.1-7.6,1.3-9.6c1.8-1.1,4-1.5,6-2c2.3-0.6,4.5-1.3,6.6-2.1
				c4.3-1.7,8.5-3.8,12.3-6.4c3.7-2.5,8.8-6.2,7.4-11.4c-0.2-0.6-0.8-1.2-1.4-1.1C38.1,74.5,37,88,36.5,96c-0.3,5.2,0,10.3,0.7,15.4
				c0.7,5.2,2,10.3,1.5,15.6c-0.4,4.9-2.5,9.6-4.8,13.9c-2,3.8-4.5,7.5-9.1,8.2c-1.2,0.2-2.4,0.2-3.6,0.2c-1,0-2.3,0.1-3.3-0.3
				c-1.9-0.9-2.3-3.7-2.2-5.5c0.1-4.7,2.9-9,5.6-12.7c5.6-7.8,12.7-15.1,22-18.1c1.8-0.6,1-3.5-0.8-2.9c-8.9,2.8-15.9,9.2-21.6,16.5
				c-3,3.8-5.9,7.9-7.4,12.5c-1.3,4-1.4,9.9,2.5,12.6c2,1.3,4.7,1.1,7,1c2.4-0.1,4.8-0.6,6.8-1.8c4-2.5,6.2-7,8.2-11
				c2.2-4.7,3.8-9.7,3.8-15c0-5.5-1.5-11-2.1-16.5c-0.6-6.2-0.5-12.5,0.4-18.7c0.7-4.7,2.2-12.1,8.2-12.6c-0.5-0.4-1-0.7-1.4-1.1
				c0.6,2.3-1.2,4.2-2.7,5.6c-1.8,1.6-4,2.9-6,4.1c-4.3,2.5-8.8,4.5-13.6,5.9c-4.1,1.2-9.1,1.7-11.6,5.8c-2,3.4-1.4,8.1,0.9,11.2
				c3,4,8.1,5.6,12.9,5.8C28.8,114,28.8,111,26.8,110.9L26.8,110.9z"/>
		</g>
	</g>
	<g>
		<g>
			<path d="M50.6,126.6c2-1.2,4.6-2.3,6.1-4.1c1.4-1.7,1.9-4,1.2-6.1c-0.6-2-2.4-3.9-4.7-3.7c-2.4,0.2-3.4,2.5-4,4.5
				c-1.2,4.1-1,9,1.8,12.4c2.3,2.8,6.6,4.2,10.1,2.8c2.3-0.9,3.8-2.9,4.8-5.1c1.2-2.5,2.1-5.1,2.8-7.7c0.6-1.9-2.3-2.6-2.9-0.8
				c-0.6,1.9-1.2,3.7-1.9,5.5c-0.6,1.4-1.2,3-2.3,4.1c-1.8,1.9-4.6,1.8-6.8,0.5c-2.6-1.6-3.5-4.6-3.4-7.5c0.1-1.6,0.4-3.3,1.1-4.8
				c0.2-0.4,0.4-1,0.9-1c0.5,0,1,0.5,1.2,0.8c0.9,1.2,0.6,3-0.3,4.1c-0.6,0.7-1.5,1.2-2.3,1.7c-1,0.6-2,1.2-3.1,1.8
				C47.4,124.9,48.9,127.5,50.6,126.6L50.6,126.6z"/>
		</g>
	</g>
	<g>
		<g>
			<path d="M82.1,120.7c2.4-2.7,3.3-6.2,2.5-9.8c-0.9,0.4-1.8,0.8-2.7,1.2c0.8,1.9,1.7,3.9,2.5,5.8c0.7,1.7,1.6,3.4,2,5.2
				c0.3,1.2,0.2,2.9-1.3,3.2c-1.5,0.2-3.1-0.7-4.3-1.4c-1.6-0.9-2.8,1.1-1.8,2.4c3.3,4.2,9.5,4.2,13.9,1.9
				c5.4-2.7,8.1-8.7,10.4-13.9c0.8-1.7-1.5-3.1-2.6-1.5c-1.8,2.7-3.8,5.8-3.5,9.2c0.2,2.7,2.2,5.6,5,6.2c2.9,0.7,5.3-1.3,6.4-3.8
				c1.2-2.8,0.5-6.1,2.1-8.8c-0.9-0.4-1.8-0.8-2.7-1.2c-0.7,3.3-1.4,7.1,0.5,10.2c1.6,2.6,4.7,4,7.6,2.7c2.8-1.2,5.1-4,6.6-6.6
				c1.7-2.9,2.5-6.1,2.6-9.5c-1,0-2,0-3,0c-0.1,3.8-2,7.5-1.1,11.3c0.7,2.9,2.9,5.7,6.2,5.6c3.7-0.1,6.1-3.6,7.9-6.3
				c2.3-3.3,4.2-6.9,5.9-10.6c-0.9-0.5-1.7-1-2.6-1.5c-1.8,4-0.8,7.9,2,11.1c1.1,1.3,2.3,2.9,1.1,4.5c-1.1,1.5-3.1,1-4.1-0.3
				c-0.7,0.7-1.4,1.4-2.1,2.1c3,2.4,7,2.7,10.6,1.3c3.9-1.5,6.7-4.7,9.3-7.8c1.3-1.5-0.9-3.6-2.1-2.1c-2.2,2.5-4.4,5.1-7.4,6.7
				c-2.5,1.3-6,1.7-8.3-0.2c-1.5-1.2-3.3,0.6-2.1,2.1c3.1,4,9.4,1.8,9.8-3.1c0.2-2.5-1.5-4.2-3-6c-1.6-1.9-2-4.6-1-6.9
				c0.8-1.7-1.8-3.3-2.6-1.5c-1.3,3-2.9,5.9-4.7,8.7c-1.4,2.2-3.2,5.7-5.9,6.6c-2.5,0.8-3.9-2.1-4.1-4.2c-0.2-3.2,1.3-6.4,1.4-9.6
				c0-1.9-2.9-1.9-3,0c-0.1,4.7-2.3,9.5-6.1,12.5c-1.8,1.4-3.9,1.4-5.2-0.7c-1.5-2.3-0.8-5.3-0.2-7.8c0.3-1.6-1.8-2.7-2.7-1.2
				c-1.2,2.1-1.3,4.3-1.6,6.6c-0.2,1.6-0.8,4.4-2.9,4.6c-2.1,0.2-3.4-2.4-3.4-4.2c0.1-2.6,1.7-4.9,3.1-6.9c-0.9-0.5-1.7-1-2.6-1.5
				c-2,4.5-4.1,9.7-8.4,12.4c-3.4,2.1-8.4,2.4-11.1-1c-0.6,0.8-1.2,1.6-1.8,2.4c1.8,1.1,4,2,6.2,1.8c2.2-0.3,3.8-1.9,4.1-4
				c0.3-2.2-0.6-4.3-1.4-6.3c-1.2-2.8-2.3-5.5-3.5-8.3c-0.7-1.6-3.1-0.4-2.7,1.2c0.6,2.4-0.1,5-1.7,6.8
				C78.7,120,80.8,122.1,82.1,120.7L82.1,120.7z"/>
		</g>
	</g>
	<g>
		<g>
			<path d="M124.4,101.3c-2-0.7-4.2,0.7-4.8,2.6c-0.7,1.9,0.5,4.2,2.3,5c1.9,0.9,4.2,0.4,5.6-1.2c1.4-1.6,1.8-4,1-6
				c-0.4-1.1-1-2-2.1-2.6c-1.1-0.6-2.6-0.6-3.4,0.4c-0.5,0.6-0.6,1.5,0,2.1c0.5,0.5,1.6,0.7,2.1,0c0,0,0.1-0.1,0.1-0.1
				c0,0.1-0.3,0.2-0.1,0.1c-0.4,0.2-0.2,0.1-0.1,0.1c0.2,0-0.4,0.1-0.2,0c0.1,0,0.3,0,0,0c-0.2,0-0.1,0,0,0c0.1,0,0.2,0.1,0,0
				c-0.2-0.1,0,0,0.1,0c0.1,0,0.1,0.1,0.2,0.1c0.2,0.1-0.2-0.2-0.1-0.1c0.1,0.1,0.2,0.2,0.3,0.3c0.1,0.1-0.1-0.2-0.1-0.1
				c0,0.1,0.1,0.1,0.1,0.2c0,0.1,0.1,0.2,0.1,0.2c0.1,0.2,0-0.1,0,0c0.1,0.3,0.2,0.6,0.3,0.9c0,0.1,0.1,0.3,0,0c0,0.1,0,0.2,0,0.2
				c0,0.2,0,0.4,0,0.5c0,0.1,0,0.3,0,0.1c0-0.2,0,0,0,0.1c0,0.2-0.1,0.4-0.1,0.5c0,0.1-0.1,0.2-0.1,0.2c0-0.1,0.1-0.3,0,0
				c-0.1,0.1-0.2,0.4-0.3,0.5c0,0,0.2-0.3,0,0c0,0.1-0.1,0.1-0.1,0.2c-0.1,0.1-0.2,0.2-0.3,0.3c-0.1,0.1,0,0.1,0,0
				c0,0-0.2,0.1-0.2,0.1c-0.1,0.1-0.4,0.2-0.5,0.3c0,0,0.3-0.1,0.1,0c-0.1,0-0.1,0-0.2,0.1c-0.1,0-0.1,0-0.2,0.1c-0.1,0-0.1,0,0.1,0
				c-0.1,0-0.3,0-0.4,0c0,0-0.2,0-0.2,0c0.2,0,0.3,0,0.1,0c-0.1,0-0.1,0-0.1,0c-0.1,0-0.1,0-0.2-0.1c-0.1,0-0.1-0.1,0.1,0
				c-0.1-0.1-0.3-0.1-0.4-0.2c0,0-0.2-0.1-0.2-0.1c0,0.1,0.2,0.2,0.1,0c-0.1-0.1-0.3-0.3-0.4-0.4c0,0.1,0.2,0.2,0.1,0.1
				c0-0.1-0.1-0.1-0.1-0.2c0,0-0.1-0.2-0.1-0.2c0,0,0.1,0.3,0,0.1c0-0.1,0-0.1-0.1-0.2c0,0,0-0.1,0-0.1c0-0.1,0-0.1,0,0
				c0,0,0,0.1,0,0.1c0-0.1,0-0.1,0-0.2c0,0,0-0.3,0-0.3c0.1,0-0.1,0.3,0,0.1c0-0.1,0.1-0.2,0.1-0.3c0.1-0.2,0,0.1,0,0.1
				c0,0,0.1-0.2,0.1-0.2c0.1-0.2,0,0.1-0.1,0.1c0,0,0.1-0.2,0.2-0.2c0,0,0.1-0.1,0.1-0.1c0.2-0.2,0,0,0,0c0,0,0.4-0.2,0.4-0.2
				c0,0.1-0.3,0.1-0.1,0c0.1,0,0.2,0,0.3-0.1c0.2-0.1,0,0.1-0.1,0c0,0,0.2,0,0.3,0c0.2,0-0.1,0.1-0.1,0c0,0,0.2,0.1,0.3,0.1
				c0.7,0.3,1.7-0.3,1.8-1C125.6,102.3,125.2,101.6,124.4,101.3L124.4,101.3z"/>
		</g>
	</g>
	<g>
		<g>
			<path d="M163.1,126.8c10.7,3.8,22.8,3,33.1-1.9c5.1-2.4,9.7-5.9,13.4-10.1c4-4.5,7-9.7,10-14.9c3.4-5.9,6.7-11.9,11.3-17
				c-0.8-0.5-1.7-1-2.5-1.5c-4.1,16.2-2.1,33,0,49.3c0.2,1.9,3.2,1.9,3,0c-2-16-4.1-32.6-0.1-48.5c0.3-1.4-1.5-2.6-2.5-1.5
				c-7.9,8.8-12.1,20-19.2,29.3c-6.7,8.9-16.7,14.7-27.8,15.9c-6.1,0.7-12.2,0-17.9-2C162.1,123.2,161.3,126.1,163.1,126.8
				L163.1,126.8z"/>
		</g>
	</g>
	<g>
		<g>
			<path d="M177.1,98.8c-2.8,3.5-5.5,8.4-1.7,12.2c3,3,7.9,3.3,11.9,3.7c11.4,1.1,23,1.2,34.4,0.3c6.5-0.6,13-1.4,19.4-2.7
				c1.9-0.4,1.1-3.2-0.8-2.9c-10.1,1.9-20.4,3-30.7,3.2c-5.1,0.1-10.2,0-15.3-0.3c-2.6-0.2-5.2-0.4-7.7-0.6c-2-0.2-4-0.4-5.9-1
				c-1.6-0.5-3.4-1.4-4-3.1c-0.8-2.4,1.2-4.9,2.6-6.6C180.5,99.5,178.3,97.3,177.1,98.8L177.1,98.8z"/>
		</g>
	</g>
	<g>
		<g>
			<path d="M240.5,120.8c0.2-1.9,0.9-3.7,2-5.3c0.4-0.6,1.2-1.9,2-2c0.7-0.1,1,0.6,1.2,1.1c0.6,1.8,0.5,4,0.5,5.8
				c0,2.3-0.3,4.6-0.8,6.8c-0.4,1.9,2.3,2.6,2.9,0.8c1.1-3.3,2.7-6.5,5.1-9c1.2-1.2,2.5-2.3,4.1-2.9c0.2-0.1,0.4-0.2,0.7-0.2
				c-0.4-0.4-0.5-0.4-0.5,0c-0.2,0.3,0,1.2,0,1.6c0,1.1,0,2.1,0,3.2c0,3.4,0.8,8.2,5.1,8.5c4.2,0.3,5.8-4.1,8.6-6.4
				c1.5-1.3-0.7-3.4-2.1-2.1c-1.7,1.4-5.9,8.6-8,4c-0.9-1.9-0.5-4.3-0.5-6.2c0-1.7,0.6-4.4-1.4-5.3c-1.5-0.7-3.6,0.5-4.9,1.3
				c-1.4,0.9-2.7,2-3.9,3.3c-2.4,2.8-4,6.1-5.2,9.6c1,0.3,1.9,0.5,2.9,0.8c0.6-3.2,1-6.5,0.9-9.7c-0.1-2.3-0.1-5.2-2-6.9
				c-2.2-2-4.9-0.3-6.5,1.6c-1.8,2.3-2.8,4.9-3.1,7.7C237.2,122.7,240.2,122.7,240.5,120.8L240.5,120.8z"/>
		</g>
	</g>
	<g>
		<g>
			<path d="M282.7,117c-2-3-5.9-3.9-9.2-2.5c-3.4,1.5-5.3,5.5-5.2,9.1c0.1,4,3.1,6.9,7.2,6.1c4-0.8,5.8-4.8,6.1-8.5
				c0.2-1.9-2.8-1.9-3,0c-0.7,7.3-1,14.7-0.8,22c0.1,3.7,0.2,7.3,0.5,10.9c0.2,2.7,0.4,6.7-2.7,8c-2.4,1-3.5-1.7-3.6-3.6
				c-0.1-3,1.2-6,2.6-8.6c1.6-3,3.4-5.9,5.2-8.8c1.9-3.1,3.8-6.2,5.7-9.3c2.2-3.5,4.3-7.1,6.5-10.6c1.2-2,3.6-7.4,6.8-6.2
				c-0.4-0.5-0.7-1-1.1-1.4c-0.1,3.6-2.3,6.8-5.5,8.5c-0.6,0.3-0.9,1.1-0.7,1.7c1.2,3.9,5.4,6.1,9.3,5.4c4.3-0.7,7.3-4.5,8.3-8.5
				c0.5-1.9-2.4-2.7-2.9-0.8c-0.7,2.8-2.6,5.6-5.6,6.3c-2.5,0.6-5.5-0.7-6.2-3.2c-0.2,0.6-0.5,1.1-0.7,1.7c4.2-2.1,6.8-6.4,7-11.1
				c0-0.7-0.5-1.2-1.1-1.4c-3.2-1.2-6,1.3-7.8,3.8c-2.5,3.4-4.5,7.2-6.6,10.8c-2.2,3.7-4.5,7.4-6.7,11c-2.1,3.5-4.3,6.9-6.2,10.5
				c-1.6,3-3.1,6.4-3.1,9.8c0,2.7,1,5.8,3.8,6.9c3,1.2,6.2-0.8,7.6-3.5c1.7-3.5,0.9-7.7,0.7-11.4c-0.5-9.6-0.3-19.3,0.6-28.9
				c-1,0-2,0-3,0c-0.2,2.2-1.2,4.9-3.6,5.5c-0.9,0.2-1.9,0.2-2.6-0.4c-1-0.8-1.1-2.3-1-3.5c0.1-2.2,1.3-4.7,3.4-5.6
				c1.8-0.8,4.2-0.4,5.4,1.2C281.2,120.1,283.8,118.6,282.7,117L282.7,117z"/>
		</g>
	</g>
	<g>
		<g>
			<path d="M139.3,153.7c1.9,9.1,5.7,17.5,9.5,25.9c3.9,8.4,7.5,16.9,11.7,25.2c2.1,4.1,4.5,8,7.4,11.5c2.7,3.2,5.8,6.1,9,8.8
				c7,5.9,14.2,11.9,23,14.9c4.7,1.6,9.5,2.6,14.2,4.2c2.4,0.8,4.8,1.7,7.2,2.7c0.5,0.2,0.1,0,0,0c0.4,0.1,0.7,0.3,1.1,0.5
				c0.6,0.2,1.1,0.5,1.7,0.8c1.2,0.5,2.4,1.1,3.6,1.7c2.1,1.1,5,0.6,6.2-1.6c1.1-2,0.6-5-1.6-6.2c-8.1-4-16.5-6.9-25.2-9.3
				c-2.1-0.6-4.3-1.2-6.4-2c-0.2-0.1-1.2-0.5-0.6-0.2c-0.5-0.2-1-0.4-1.4-0.7c-1-0.5-2-1.1-3-1.7c-3.8-2.4-6.1-4.3-9.6-7.1
				c-3.3-2.7-6.5-5.4-9.4-8.5c-0.7-0.7-1.3-1.4-1.9-2.1c-0.3-0.4-0.7-0.8-1-1.2c-0.3-0.4,0,0,0,0c-0.2-0.3-0.4-0.6-0.7-0.9
				c-1.2-1.7-2.3-3.5-3.3-5.4c-2.1-3.8-3.9-7.8-5.7-11.8c-1.9-4.2-3.9-8.4-5.8-12.6c-1.1-2.3-2.1-4.6-3.2-6.9
				c-1.1-2.4-1.9-4.2-2.7-6.2c-1.8-4.6-3.4-9.3-4.4-14.2c-0.5-2.3-3.3-3.9-5.5-3.1C140,148.9,138.8,151.2,139.3,153.7L139.3,153.7z"
				/>
		</g>
	</g>
	<g>
		<g>
			<path d="M214.4,227.7c7.3,10,14.6,20,21.9,30c1.3-2.3,2.6-4.5,3.9-6.8c-3,0.4-5.9,0.5-8.9,0.2c-0.4,0-0.8-0.1-1.2-0.1
				c-0.3,0-0.3,0,0,0c-0.2,0-0.3,0-0.5-0.1c-0.8-0.1-1.5-0.3-2.3-0.4c-1.4-0.3-2.8-0.7-4.1-1.1c-5.7-1.8-11.1-4.1-17.2-4.3
				c-2.4-0.1-4.6,2.1-4.5,4.5c0.1,2.5,2,4.4,4.5,4.5c0.7,0,1.5,0.1,2.2,0.2c-0.5-0.1-0.2,0,0.1,0c0.4,0.1,0.7,0.1,1.1,0.2
				c1.4,0.3,2.7,0.7,4,1.1c2.8,0.9,5.4,1.9,8.2,2.8c6,1.8,12.3,2.4,18.5,1.6c1.6-0.2,3-0.7,3.9-2.2c0.7-1.3,0.9-3.3,0-4.5
				c-7.3-10-14.6-20-21.9-30c-1.4-1.9-4-3-6.2-1.6C214.2,222.8,213,225.7,214.4,227.7L214.4,227.7z"/>
		</g>
	</g>
</g>
</svg>
