<?xml version="1.0" encoding="utf-8"?>
<!-- Generator: Adobe Illustrator 27.3.1, SVG Export Plug-In . SVG Version: 6.00 Build 0)  -->
<svg version="1.1" id="Calque_1" xmlns="http://www.w3.org/2000/svg" xmlns:xlink="http://www.w3.org/1999/xlink" x="0px" y="0px"
	 viewBox="0 0 320 320" style="enable-background:new 0 0 320 320;" xml:space="preserve">
<style type="text/css">
	.st0{fill:#FFFFFF;}
	.st1{fill:none;stroke:#000000;stroke-width:4;stroke-linecap:round;stroke-miterlimit:8;}
	.st2{font-family:'Sacramento-Regular';}
	.st3{font-size:68px;}
</style>
<rect x="49.6" y="44.6" class="st0" width="220.7" height="231"/>
<g>
	<g transform="translate(9.702599732430826 10.869560737535267) rotate(0 45.47682588731914 46.86890909321369)">
		<path class="st1" d="M135.3,141.5c4.7,10.2,11.6,44.2,27.7,61.3c16.1,17,57.3,34,69,41.1 M134.4,143.9c5,10.4,14.9,43.3,31,60.1
			c16.1,16.8,55.1,33.7,65.9,40.8"/>
	</g>
	<g transform="translate(9.702599732430826 10.869560737535267) rotate(0 45.47682588731914 46.86890909321369)">
		<path class="st1" d="M197.7,238c12.3,3.5,24.3,7.3,34,6 M199.9,240.5c10,0.8,20.6,3.1,32.4,3.7"/>
	</g>
	<g transform="translate(9.702599732430826 10.869560737535267) rotate(0 45.47682588731914 46.86890909321369)">
		<path class="st1" d="M208.4,218.6c8.1,11.1,16,22.2,23.3,25.4 M210.6,221.1c6.3,7.5,13.2,16.5,21.8,23.1"/>
	</g>
</g>
<text transform="matrix(1 0 0 1 8.5967 129.5967)" class="st2 st3">Je suis Ange</text>
</svg>
